-
      the fast  and The Hottest Private Tracker on the net

Please Seed back to make the speed Faster!!
 ............ NFO .............
-[URL=http://img145.imageshack.us/i/frontiq.jpg/][IMG]http://img145.imageshack.us/img145/4656/frontiq.jpg[/IMG][/URL]


MRFIXIT is proud to present:   JollyWobbles Wakey Wakey With Justin Fletcher 2013
Source:  JollyWobbles Wakey Wakey With Justin Fletcher 2013 DVDR L-S

[URL=http://img204.imageshack.us/i/27867621.png/][IMG]http://img204.imageshack.us/img204/2294/27867621.png[/IMG][/URL]

Complete name                            : C:JollyWobbles Wakey Wakey With Justin Fletcher 2013-Dvdrip-H264-MRFIXIT.avi
Format                                   : AVI
Format/Info                              : Audio Video Interleave
File size                                : 471 MiB
Duration                                 : 1h 3mn
Overall bit rate                         : 1 038 Kbps
Writing library                          : VirtualDub build 32842/release


[URL=http://img713.imageshack.us/i/32031619.png/][IMG]http://img713.imageshack.us/img713/512/32031619.png[/IMG][/URL]

ID                                       : 0
Format                                   : AVC
Format/Info                              : Advanced Video Codec
Format profile                           : High@L3.0
Format settings, CABAC                   : Yes
Format settings, ReFrames                : 3 frames
Codec ID                                 : H264
Duration                                 : 1h 3mn
Bit rate                                 : 900 Kbps
Width                                    : 720 pixels
Height                                   : 384 pixels
Display aspect ratio                     : 1.85:1
Frame rate                               : 25.000 fps
Color space                              : YUV
Chroma subsampling                       : 4:2:0
Bit depth                                : 8 bits
Scan type                                : Progressive
Bits/(Pixel*Frame)                       : 0.130
Stream size                              : 408 MiB (87%)
Writing library                          : x264 core 130 r2273kMod b3065e6
Encoding settings                        : cabac=1 / ref=3 / deblock=1:0:0 / analyse=0x3:0x13 / me=umh / subme=7 / psy=1 / fade_compensate=0.00 / psy_rd=1.00:0.00 / mixed_ref=1 / me_range=16 / chroma_me=1 / trellis=1 / 8x8dct=1 / cqm=0 / deadzone=21,11 / fast_pskip=1 / chroma_qp_offset=-2 / threads=6 / lookahead_threads=6 / sliced_threads=1 / slices=6 / nr=0 / decimate=1 / interlaced=0 / bluray_compat=0 / constrained_intra=0 / bframes=0 / weightp=2 / keyint=250 / keyint_min=25 / scenecut=40 / intra_refresh=0 / rc=2pass / mbtree=0 / bitrate=900 / ratetol=1.0 / qcomp=0.60 / qpmin=10 / qpmax=51 / qpstep=4 / cplxblur=20.0 / qblur=0.5 / ip_ratio=1.40 / aq=1:1.00
  
[URL=http://img684.imageshack.us/i/14258198.png/][IMG]http://img684.imageshack.us/img684/6473/14258198.png[/IMG][/URL]

ID                                       : 1
Format                                   : MPEG Audio
Format version                           : Version 1
Format profile                           : Layer 3
Mode                                     : Joint stereo
Mode extension                           : MS Stereo
Codec ID                                 : 55
Codec ID/Hint                            : MP3
Duration                                 : 1h 3mn
Bit rate mode                            : Constant
Bit rate                                 : 128 Kbps
Channel(s)                               : 2 channels
Sampling rate                            : 48.0 KHz
Compression mode                         : Lossy
Stream size                              : 58.0 MiB (12%)
Alignment                                : Split accross interleaves
Interleave, duration                     : 40 ms (1.00 video frame)
Interleave, preload duration             : 500 ms
Writing library                          : LAME3.99.5
 



[URL=http://img225.imageshack.us/i/39945039.png/][IMG]http://img225.imageshack.us/img225/9529/39945039.png[/IMG][/URL]

This DVD has over an hour of original music, slapstick humour & family comedy. There are 7 episodes which have all been written by, produced and directed by the star of the show, Justin Fletcher (or as I like to call him, King of Cbeebies). They also feature Pete Gallagher, aka Mister Maker!

Join Justin on his journey to find fun in the most unlikely places, having jolly adventures wherever he goes. Justin is transported by his friendly, faithful & fun car on all of his adventures.

To be in with a chance of winning one of these DVDs, leave me a comment to tell me who you would give it to if you won, and then fill in the rafflecopter widget below.

[URL=http://img405.imageshack.us/i/70975872.png/][IMG]http://img405.imageshack.us/img405/6001/70975872.png[/IMG][/URL]

Justin Fletcher

note he some annoyimg tv guy that the kids love

[URL=http://img819.imageshack.us/i/94723758.png/][IMG]http://img819.imageshack.us/img819/9863/94723758.png[/IMG][/URL]

[URL=http://img195.imageshack.us/i/14700322.jpg/][IMG]http://img195.imageshack.us/img195/1793/14700322.jpg[/IMG][/URL]
[URL=http://img11.imageshack.us/i/70212193.jpg/][IMG]http://img11.imageshack.us/img11/5643/70212193.jpg[/IMG][/URL]
[URL=http://img145.imageshack.us/i/10574543.jpg/][IMG]http://img145.imageshack.us/img145/2406/10574543.jpg[/IMG][/URL]
[URL=http://img705.imageshack.us/i/49908109.jpg/][IMG]http://img705.imageshack.us/img705/4687/49908109.jpg[/IMG][/URL]
[URL=http://img13.imageshack.us/i/69738467.jpg/][IMG]http://img13.imageshack.us/img13/268/69738467.jpg[/IMG][/URL]
[URL=http://img94.imageshack.us/i/48876477.png/][IMG]http://img94.imageshack.us/img94/8062/48876477.png[/IMG][/URL]

[URL=http://img834.imageshack.us/i/greets3.png/][IMG]http://img834.imageshack.us/img834/3478/greets3.png[/IMG][/URL]

voltage, DQ1, LEGION, PRESTiGE, 26k, RemixHD, UNiQUE, Legend-Rg, DiNGiE, Relentle$$,
Bigguy, paranoid53, HIVE-CM8, TRINITY, Rx, INSPiRAL, HOPE, tommiecook, Wayne, Seedling, Quagmire